<svg width="21" height="21" viewBox="0 0 21 21" fill="none" xmlns="http://www.w3.org/2000/svg">
<path d="M12.25 21H8.75C8.28587 21 7.84075 20.8156 7.51256 20.4874C7.18437 20.1592 7 19.7141 7 19.25V12.6087L0.51625 6.125C0.187611 5.79832 0.00195369 5.35463 0 4.89125V1.75C0 1.28587 0.184374 0.840752 0.512563 0.512563C0.840752 0.184374 1.28587 0 1.75 0H19.25C19.7141 0 20.1592 0.184374 20.4874 0.512563C20.8156 0.840752 21 1.28587 21 1.75V4.89125C20.998 5.35463 20.8124 5.79832 20.4837 6.125L14 12.6087V19.25C14 19.7141 13.8156 20.1592 13.4874 20.4874C13.1592 20.8156 12.7141 21 12.25 21ZM1.75 1.75V4.89125L8.75 11.8913V19.25H12.25V11.8913L19.25 4.89125V1.75H1.75Z" fill="#C29BCF"/>
</svg>
